<svg xmlns="http://www.w3.org/2000/svg" viewBox="0 0 50 50"><defs><style>.cls-1{fill:#e53345;}</style></defs><title>5Asset 10</title><g id="Layer_2" data-name="Layer 2"><g id="footer"><path class="cls-1" d="M25.12,12.14A12.74,12.74,0,1,0,37.86,24.88,12.74,12.74,0,0,0,25.12,12.14Zm0,21.11a8.38,8.38,0,1,1,8.38-8.37A8.37,8.37,0,0,1,25.12,33.25Z"/><path class="cls-1" d="M35.47,0H14.53A14.54,14.54,0,0,0,0,14.53V35.47A14.54,14.54,0,0,0,14.53,50H35.47A14.54,14.54,0,0,0,50,35.47V14.53A14.54,14.54,0,0,0,35.47,0ZM45.63,31.1c0,3.71-.37,8.56-2.67,11.13-2.66,3-7.55,3.4-11.86,3.4H18.9c-4.31,0-9-.18-11.62-3.15C5,39.91,4.37,34.81,4.37,31.1V18.9c0-4.08.45-9,3.15-11.62S15,4.37,18.9,4.37H31.1c3.83,0,9,.48,11.62,2.91,2.84,2.65,2.91,7.43,2.91,11.62Z"/><circle class="cls-1" cx="38.35" cy="11.65" r="2.91"/></g></g></svg>