<svg xmlns="http://www.w3.org/2000/svg" viewBox="0 0 50 50"><defs><style>.cls-1{fill:#e53345;fill-rule:evenodd;}</style></defs><title>5Asset 9</title><g id="Layer_2" data-name="Layer 2"><g id="footer"><path class="cls-1" d="M25,50A25,25,0,1,1,50,25,25,25,0,0,1,25,50ZM46.08,28.42a31.39,31.39,0,0,0-13.3-.91,91.7,91.7,0,0,1,4.15,15.22A21.36,21.36,0,0,0,46.08,28.42ZM33.34,44.69A89.55,89.55,0,0,0,28.79,28.5l-.15,0c-12,4.2-16.36,12.55-16.75,13.34a21.31,21.31,0,0,0,21.45,2.81ZM9.14,39.31c.48-.83,6.34-10.53,17.35-14.09.28-.09.56-.18.84-.25-.53-1.22-1.12-2.43-1.73-3.63a78.78,78.78,0,0,1-21.94,3c0,.22,0,.43,0,.65A21.27,21.27,0,0,0,9.14,39.31Zm-5-18.65a79.9,79.9,0,0,0,19.74-2.6A136.76,136.76,0,0,0,15.92,5.71,21.42,21.42,0,0,0,4.1,20.66ZM20,4.27a114.44,114.44,0,0,1,8,12.5c7.6-2.84,10.81-7.16,11.2-7.71A21.26,21.26,0,0,0,25,3.68,21.66,21.66,0,0,0,20,4.27Zm21.53,7.26c-.45.61-4,5.2-11.92,8.42C30.1,21,30.58,22,31,23c.16.37.31.74.46,1.1a49.93,49.93,0,0,1,14.87.69A21.28,21.28,0,0,0,41.53,11.53Z"/></g></g></svg>