<svg xmlns="http://www.w3.org/2000/svg" viewBox="0 0 220.31 200.24"><defs><style>.cls-1,.cls-2,.cls-3{fill:none;}.cls-1,.cls-2,.cls-3,.cls-4,.cls-6{stroke:#e53345;stroke-miterlimit:10;}.cls-1{stroke-width:8.89px;}.cls-2,.cls-6{stroke-width:7.12px;}.cls-3,.cls-4{stroke-width:5.34px;}.cls-4,.cls-5,.cls-6{fill:#e53345;}</style></defs><title>5Asset 5</title><g id="Layer_2" data-name="Layer 2"><g id="Head_red_wink" data-name="Head/red/wink"><path class="cls-1" d="M22.08,106.85a88.93,88.93,0,1,1,12.58,45.62"/><path id="ear" class="cls-1" d="M43.42,118.41s-11.14-8.89-17.78-11.56c-3.65-1.47-8.62-2.91-13.94.89-6.22,4.45-8.59,16.6-6.52,25.5,2.71,11.62,13.05,19,23.13,20.31,7.23.95,16-3.12,16-3.12"/><path class="cls-1" d="M198.79,106.55s4.9-6.81,9.19-7.11,6.37,6.22,7.12,9.19c2,7.92,0,20.76-4.9,27.28-1.78,2.36-5.89,6.7-10.67,7.11-3.41.3-7.86-1.48-7.86-1.48"/><path id="mouth" class="cls-2" d="M90.27,149s22.87,10.47,46.55,8.9c22.24-1.49,40.92-15.42,40.92-15.42"/><path id="nose" class="cls-2" d="M138.82,122s10.45-.44,11.79,3.56c1.48,4.43-2.45,10.45-2.45,10.45"/><line class="cls-3" x1="112.51" y1="135.61" x2="103.91" y2="143.61"/><line class="cls-3" x1="129.71" y1="136.79" x2="123.78" y2="144.5"/><line class="cls-3" x1="156.69" y1="136.5" x2="162.62" y2="142.13"/><line class="cls-3" x1="170.33" y1="129.98" x2="176.85" y2="135.91"/><line class="cls-3" x1="143.05" y1="170.3" x2="137.42" y2="182.75"/><line class="cls-3" x1="126.45" y1="169.7" x2="118.44" y2="180.67"/><line class="cls-3" x1="159.95" y1="163.78" x2="154.91" y2="173.86"/><path class="cls-2" d="M17.93,130c0-2.56.3-8.9,3-9.79s6.9,1.79,8.74,3.56c3.56,3.41,6.08,13,6.08,13"/><path class="cls-4" d="M175.07,46.07c-2.08.89-35,6.62-41.21,7.11-7.41.6-77.39-2.07-77.39-2.07s4.75,43.58,3.86,44.77-16.9,14.82-16.9,14.82l3.85,15.72s-9.24-11.84-14.23-16-8.68-3.37-9.78-7.12C20.22,93,30.31,71.22,36,62.08,43,50.9,60.46,32.37,72.78,27.69c14.2-5.39,44.64-9.49,59.6-6.82,9.3,1.66,34.09,16.3,34.09,16.3Z"/><circle class="cls-5" cx="103.91" cy="115.52" r="6.89"/><ellipse class="cls-5" cx="168.62" cy="115.3" rx="6.89" ry="2.1"/><path class="cls-5" d="M122.15,85.07c1.77-.18,4-1.87,5.11-3.79,1.75-3,.82-9.11.67-11.34-.1-1.47-.6-6.07-2.67-7.26-2.32-1.32-8.3-1.48-11.79-.74C103.48,64.07,85.22,74.32,77,80.4c-1.55,1.14-4.72,3.73-5.34,5.55-.35,1-1.11,5.19,1.11,4.6C85.71,87.1,113,86,122.15,85.07Z"/><path class="cls-5" d="M156.73,89.57c-2-.19-5.74,1.88-5.88,4.87-.12,2.58,1.5,10.09,3.37,12.82a7.87,7.87,0,0,0,7.24,3.3c7.39-1.6,19.89-4.94,28-7.26,2.36-.67.56-3.93-.4-4.53C186.44,97.13,166.24,90.5,156.73,89.57Z"/><path id="hawk" class="cls-6" d="M171.29,41.47c-6.23-7.41-30.91-28.9-42.47-37.5-20.16,6.82-56,19.27-66.71,29.65C43.21,52,173.66,44.73,171.29,41.47Z"/></g></g></svg>