<svg xmlns="http://www.w3.org/2000/svg" viewBox="0 0 527.43 2264.11"><defs><style>.cls-1,.cls-10,.cls-13,.cls-3,.cls-4,.cls-5,.cls-6,.cls-9{fill:none;}.cls-1,.cls-10,.cls-11,.cls-12,.cls-13,.cls-14,.cls-2,.cls-3,.cls-4,.cls-5,.cls-6,.cls-7,.cls-8,.cls-9{stroke:#e53345;stroke-miterlimit:10;}.cls-1,.cls-12,.cls-13,.cls-2{stroke-width:5px;}.cls-11,.cls-12,.cls-14,.cls-2,.cls-7,.cls-8{fill:#fff;}.cls-3{stroke-width:5.84px;}.cls-11,.cls-14,.cls-4,.cls-5{stroke-width:3px;}.cls-10,.cls-12,.cls-13,.cls-14,.cls-5{stroke-linecap:round;}.cls-6{stroke-width:5.85px;}.cls-7,.cls-9{stroke-width:5.48px;}.cls-8{stroke-width:5.04px;}.cls-10{stroke-width:2.6px;}</style></defs><title>5Asset 2</title><g id="Layer_2" data-name="Layer 2"><g id="legs"><polygon class="cls-1" points="200.59 1000.57 199.59 1098.23 251.59 1162.23 409.59 1160.23 405.92 996.9 200.59 1000.57"/><path class="cls-2" d="M178.59,960.23v36c55,17,236,3,236,3l1-40S227.59,969.23,178.59,960.23Z"/><circle class="cls-1" cx="193.09" cy="981.73" r="7.5"/><circle class="cls-1" cx="250.82" cy="984.73" r="7.5"/><circle class="cls-1" cx="308.56" cy="984.73" r="7.5"/><circle class="cls-1" cx="366.29" cy="984.13" r="7.5"/><circle class="cls-3" cx="381.09" cy="979.73" r="7.5"/><circle class="cls-1" cx="331.59" cy="1097.23" r="71"/><rect class="cls-1" x="271.8" y="1621.23" width="82.58" height="282"/><circle class="cls-2" cx="312.59" cy="1597.23" r="56"/><path class="cls-2" d="M399.6,1568.79c-44.3,29.12-129.92,18.42-166.72-10.2-38.85-50.72-57-302.73-15.38-409,58.79-63.52,195.15-45.63,222.14,1.58C469,1283.51,448.75,1496.84,399.6,1568.79Z"/><circle class="cls-3" cx="321.73" cy="1601.04" r="13.17"/><path class="cls-3" d="M320.17,1588a13.17,13.17,0,0,1-3.45,24.57"/><polyline class="cls-4" points="354.92 1712.9 325.09 1713.23 325.09 1891.73"/><line class="cls-5" x1="279.92" y1="1591.57" x2="274.59" y2="1599.57"/><line class="cls-5" x1="230.09" y1="1247.73" x2="219.76" y2="1256.73"/><line class="cls-5" x1="303.09" y1="1059.73" x2="292.76" y2="1068.73"/><line class="cls-5" x1="340.03" y1="1011.94" x2="326.81" y2="1015.53"/><line class="cls-5" x1="239.84" y1="1256.98" x2="232.01" y2="1264.48"/><line class="cls-5" x1="215.59" y1="1001.73" x2="215.59" y2="1116.23"/></g><g id="foot"><rect class="cls-2" x="246.59" y="1893.23" width="132" height="183"/><circle class="cls-2" cx="312.38" cy="2071.31" r="65.93"/><circle class="cls-1" cx="317.57" cy="2075.22" r="16.02"/><path class="cls-1" d="M316.71,2059.21a16,16,0,0,1-4.77,31"/><path class="cls-2" d="M243.59,2068.23c-74.31,15-237,112-241,184,23,11,376,16,461-6,3-56-45-144-82.67-177.66C335.26,2083.9,278.59,2083.9,243.59,2068.23Z"/><rect class="cls-2" x="241.92" y="1918.57" width="141.33" height="19.33"/><rect class="cls-2" x="241.26" y="1951.57" width="141.33" height="19.33"/><line class="cls-5" x1="288.6" y1="2023.8" x2="277.55" y2="2033.3"/><line class="cls-5" x1="288.32" y1="2033.99" x2="280.06" y2="2042"/><line class="cls-5" x1="186.34" y1="2107.98" x2="173.84" y2="2115.48"/><line class="cls-5" x1="197.01" y1="2110.98" x2="187.51" y2="2117.48"/><line class="cls-5" x1="129.01" y1="2183.48" x2="119.51" y2="2189.98"/><path class="cls-5" d="M360.31,2051.39a52.16,52.16,0,0,1,4.61,21.51"/><line class="cls-5" x1="349.09" y1="1924.73" x2="363.09" y2="1924.73"/><line class="cls-5" x1="352.59" y1="1930.23" x2="361.59" y2="1930.23"/><line class="cls-5" x1="349.09" y1="1958.23" x2="363.09" y2="1958.23"/><line class="cls-5" x1="352.59" y1="1963.73" x2="361.59" y2="1963.73"/><path class="cls-5" d="M319.45,1639.27a43,43,0,0,1-6.36.46"/><path class="cls-5" d="M354.16,1584a43.07,43.07,0,0,1-27,53.44"/></g><g id="neck"><rect class="cls-6" x="239.14" y="257.88" width="100.83" height="129.4" transform="translate(-117.26 172.92) rotate(-27.89)"/><path class="cls-7" d="M248,370.27s33.11-10.54,55.26-21.27c21.33-10.33,46.69-30.94,46.69-30.94l-15.58-30.44s-16.74,16.13-47.66,31.43c-23.6,11.68-54.3,20.77-54.3,20.77Z"/><path class="cls-7" d="M229,330.27s33.11-10.54,55.26-21.27c21.33-10.33,46.69-30.94,46.69-30.94l-15.58-30.44s-16.74,16.13-47.66,31.43c-23.6,11.68-54.3,20.77-54.3,20.77Z"/><path class="cls-7" d="M268,409.27s33.11-10.54,55.26-21.27c21.33-10.33,46.69-30.94,46.69-30.94l-15.58-30.44s-16.74,16.13-47.66,31.43c-23.6,11.68-54.3,20.77-54.3,20.77Z"/><path class="cls-5" d="M299.09,262.73c1,1,10,18,10,18"/><path class="cls-5" d="M293.09,263.73c1,1,10,18,10,18"/><path class="cls-5" d="M312.09,303.73c1,1,10,18,10,18"/><path class="cls-5" d="M333.09,341.73c1,1,10,18,10,18"/><path class="cls-5" d="M318.09,301.73c1,1,10,18,10,18"/><path class="cls-5" d="M339.09,339.73c1,1,10,18,10,18"/></g><g id="torso"><path class="cls-1" d="M207.26,496.23c-41.17,55.5-67.17,111.5-75.17,161.5,23,28,127,15,127,15l22-39,102,7s86.05-58.42,90-90c5-40-21-121-48-151C383.59,412.23,249.09,483.73,207.26,496.23Z"/><path class="cls-2" d="M124.09,661.73c76-16,249.5,7.5,326,33,10.5,88.5,25,203,5,259-79,19-238,23-328,2C72.67,905.57,69.56,711.78,124.09,661.73Z"/><path class="cls-2" d="M371.09,353.73c18,0,58,23,60,43-9,22-59,50-71,57-38,22.17-99,48-150.69,41.51-2.89-.36-7.31-7.51-7.31-7.51,9-30,36.88-74.68,59-90C286.09,397.73,354.09,370.73,371.09,353.73Z"/><ellipse class="cls-8" cx="211.09" cy="468.73" rx="13" ry="11" transform="translate(-297.26 545.24) rotate(-74.31)"/><path class="cls-5" d="M214.27,464.25a5.19,5.19,0,0,1,1.21,1.91,6.55,6.55,0,0,1,.12,4A6.61,6.61,0,0,1,214,473.1a4.89,4.89,0,0,1-4.8,1.48"/><circle class="cls-9" cx="273.42" cy="457.73" r="13"/><circle class="cls-9" cx="336.76" cy="431.73" r="13"/><circle class="cls-9" cx="398.09" cy="392.73" r="13"/><path class="cls-5" d="M244.6,486.67c-11.47,1.36-22.14,1.47-31.51.06"/><path class="cls-5" d="M422.09,395.73c-27.39,35.77-99.37,75-158.65,87.76"/><line class="cls-10" x1="262.33" y1="421.74" x2="250.29" y2="440.59"/><line class="cls-10" x1="272.74" y1="418.2" x2="263.92" y2="431.76"/><line class="cls-10" x1="427.96" y1="449.56" x2="412.59" y2="458.48"/><line class="cls-10" x1="437.01" y1="452.34" x2="426.59" y2="458.23"/><line class="cls-10" x1="189.24" y1="578.82" x2="177.59" y2="592.24"/><line class="cls-10" x1="198.71" y1="578.51" x2="190.76" y2="587.47"/><path class="cls-4" d="M249.09,658.73c1-1,17-27,17-27l14.08.67"/><path class="cls-4" d="M315.26,637.57l-7.34,28-20.33-2.67s8-25,9.33-28Z"/><path class="cls-4" d="M356.92,641.9l-7.33,28-20.33-2.67s8-25,9.33-28Z"/><circle class="cls-11" cx="323.84" cy="648.48" r="5"/><path class="cls-5" d="M277.07,452.32a6.53,6.53,0,0,1-3.65,11.94"/><path class="cls-5" d="M339.82,426.07A6.53,6.53,0,0,1,336.17,438"/><path class="cls-5" d="M401.82,387.32a6.53,6.53,0,0,1-3.65,11.94"/><line class="cls-5" x1="188.18" y1="788.82" x2="212.18" y2="775.32"/><line class="cls-5" x1="202.68" y1="829.31" x2="183.18" y2="824.82"/><line class="cls-5" x1="163.18" y1="855.81" x2="176.68" y2="864.81"/></g><g id="hand"><path class="cls-2" d="M241.59,1316.23c-18.69,10.93-38.2,63.85-25,81,10,13,39,11,39,11l33-77S253,1309.56,241.59,1316.23Z"/><path class="cls-2" d="M220.09,1414.23c-7.94-13.75,28.5-59,37-60.5,9.67-1.7,63-6.5,63-6.5l-20.5,61S229.59,1430.69,220.09,1414.23Z"/><path class="cls-2" d="M436.09,1435.23c-11.26,25.51-44.18,47.42-68.14,49.36-14,1.14-54.74-.7-55.57-25.86,3.12-12.62,50.72-45.22,66.84-45.68C396.55,1416.08,443.19,1419.14,436.09,1435.23Z"/><path class="cls-2" d="M381.59,1443.23c-15,23.5-53,40.72-77,39-14-1-54-9-51-34,5-12,57-37,73-35C343.26,1418.86,391.05,1428.41,381.59,1443.23Z"/><path class="cls-2" d="M329.59,1435.73c-18.5,18.5-54.69,24.79-79,20.5-25.5-4.5-38-20.5-32-41,5-12,43.5-21,60-21C295.26,1399.86,342,1423.3,329.59,1435.73Z"/><path class="cls-2" d="M327.92,1274.23c-23.68-2.4-69,14.66-81.33,35-6.28,10.34-1.35,33.34,8,41,13.6,11.15,58,0,60-2s58.67-56.66,58.67-56.66S340,1275.46,327.92,1274.23Z"/><path class="cls-2" d="M456.59,1296.23c-18.3-24.81-86-26-116-18-28,19-83.5,104-63.5,122.5,24,32.5,127.6,56.58,161.5,32.5C455.09,1416.73,457.59,1331.23,456.59,1296.23Z"/></g><g id="hand_dets" data-name="hand/dets"><path class="cls-4" d="M248.92,1400.23c-16.33,45.67,23.34,60,46.67,53.5"/><path class="cls-4" d="M299.59,1452.73c5,18.5,37,22,57,13.5"/><path class="cls-4" d="M361.26,1464.9c4.66,8.67,36,9.33,46,3.33"/><path class="cls-4" d="M230.59,1384.9c13.33-10,31.33-10.67,42-4"/><path class="cls-4" d="M281.92,1284.9c-15.33,18.67-8.66,53.33,2,64"/><path class="cls-4" d="M219.92,1346.9c0,7.34,10,21.33,18.67,22.67"/><path class="cls-4" d="M288.59,1346.23c0,42.7,141,65,165,44"/><path class="cls-4" d="M316.09,1303.74c7.17,41.16,120.5,57.83,140.58,44"/><line class="cls-5" x1="371.59" y1="1419.23" x2="384.59" y2="1412.23"/><line class="cls-5" x1="382.59" y1="1422.23" x2="396.59" y2="1414.23"/><line class="cls-5" x1="326.19" y1="1360.73" x2="337.99" y2="1349.74"/><line class="cls-5" x1="279.12" y1="1443.26" x2="290.62" y2="1442.33"/><line class="cls-5" x1="283.09" y1="1298.73" x2="296.09" y2="1291.73"/><line class="cls-5" x1="294.09" y1="1301.73" x2="308.09" y2="1293.73"/></g><g id="arm"><path class="cls-2" d="M493.09,1280.73c-35.5,36.5-141,19-169-13-20.82-50.76,2.7-242.42,50-305,27-26,132-10,140,18C528.09,1056.73,535.09,1218.73,493.09,1280.73Z"/><ellipse class="cls-12" cx="442.84" cy="975.12" rx="23.12" ry="67.93" transform="translate(-574.47 1309.86) rotate(-83.79)"/><path class="cls-2" d="M492.09,945.23a47.5,47.5,0,1,0-91.39,18.2c.54,1.31,1.17,2.58,1.82,3.83,3.32,4.72,17.33,12.33,37.84,14.57,20.9,2.27,35.73-1.35,40.22-6.41a30,30,0,0,0,5-6.13A47.2,47.2,0,0,0,492.09,945.23Z"/><path class="cls-2" d="M474.51,908.45c-10,11.5-49.35,14.21-60.85,4.19-.07-.07-11-151.62-11-151.62l60.86-4.19S474.59,907.9,474.51,908.45Z"/><path class="cls-2" d="M483.7,757.5c-22.09,13.71-76.4,17.78-102.65,7.36-.36-.15-5.12-71.28-5.11-71.32,22,5.69,80.17,3.62,102.65-7.35C478.6,686.23,484.09,757.26,483.7,757.5Z"/><path class="cls-2" d="M490.08,697c-26.76,14-92.1,18.9-123.5,8.84-.43-.14-5.12-71.27-5.1-71.31,26.31,5.37,96.31,2.46,123.49-8.85C485,625.74,490.54,696.76,490.08,697Z"/><circle id="shoulder" class="cls-2" cx="415.59" cy="592.23" r="90.5"/><line class="cls-5" x1="430.09" y1="943.23" x2="439.59" y2="938.23"/><line class="cls-5" x1="427.59" y1="951.73" x2="435.09" y2="952.23"/></g><g id="arm_dets" data-name="arm/dets"><path class="cls-13" d="M335.09,632.23c0-86.5,72-133,140.5-107"/><path class="cls-5" d="M331.59,627.23c0-86.5,72-133,140.5-107"/><line class="cls-10" x1="412.99" y1="591.72" x2="407.46" y2="608.61"/><line class="cls-10" x1="421.6" y1="587.77" x2="417.74" y2="599.11"/><line class="cls-10" x1="456.15" y1="728.94" x2="439.87" y2="736.07"/><line class="cls-10" x1="464.83" y1="732.73" x2="453.8" y2="737.4"/><line class="cls-10" x1="466.15" y1="680.28" x2="449.87" y2="687.4"/><line class="cls-10" x1="474.83" y1="684.06" x2="463.8" y2="688.74"/><ellipse class="cls-13" cx="458.51" cy="641.08" rx="17.26" ry="12.24" transform="translate(-295.81 412.58) rotate(-37.57)"/><path class="cls-13" d="M466.12,627c.12,4.86-2.83,10.49-8.1,14.55-4.89,3.75-10.57,5.24-15.09,4.38"/><path class="cls-13" d="M420.59,916.9c-13.33,15.67-11.33,45.33-7.33,57.67"/><ellipse class="cls-13" cx="472.95" cy="951.62" rx="11.14" ry="13.11"/><path class="cls-13" d="M470.71,938.78a13.85,13.85,0,0,1,4.88,10.84c0,6.34-3.83,11.63-8.9,12.84"/><path class="cls-10" d="M434.59,770.9l6.67,87.33s19.83,3,28.66-7.33"/><line class="cls-5" x1="366.59" y1="1035.57" x2="379.26" y2="1031.57"/><line class="cls-5" x1="361.92" y1="1048.23" x2="373.92" y2="1047.57"/></g><g id="head"><polygon class="cls-7" points="240.84 239.99 210.09 296.74 142.92 323.9 171.09 377.74 276.09 347.74 291.59 261.57 240.84 239.99"/><path class="cls-2" d="M240.09,240.73l-12,57s-75,29-106,27c-21-23-42-136-37.65-186.47a121.14,121.14,0,0,1,3.73-21.12c-.08-.41-7.08-3.41-7.08-3.41,16.33-51.12,74.18-89,129-89,68.54,0,124.4,56.87,126.91,128,.06,1.66-.42,24.77-2.91,31"/><path class="cls-1" d="M89.26,116.9c.83-.17,108.83-17.17,108.83-17.17l32.83,89.84"/><path class="cls-1" d="M91.59,91.23c-1.5-32.5.5-49.49,2.5-67.5,51-16,119-27,188-18,6,17,21.5,61,21.5,61"/><circle class="cls-7" cx="283.59" cy="206.23" r="55.5"/><path class="cls-11" d="M303.75,213.47,291.34,205l8.43-12.41a4.5,4.5,0,0,0-1.19-6.25h0a4.5,4.5,0,0,0-6.25,1.2L283.9,200l-12.41-8.43a4.5,4.5,0,0,0-5.06,7.45l12.41,8.43-8.43,12.41a4.5,4.5,0,0,0,1.19,6.25h0a4.5,4.5,0,0,0,6.25-1.2l8.43-12.4,12.41,8.42a4.5,4.5,0,0,0,5.06-7.44Z"/><circle class="cls-1" cx="136.09" cy="233.73" r="13"/></g><g id="head_dets" data-name="head/dets"><path class="cls-9" d="M141.41,221.86h0A11.55,11.55,0,0,0,143,244.73"/><path class="cls-5" d="M244.3,193.84c.48-1.4,1-2.77,1.64-4.1"/><path class="cls-5" d="M252.78,179.43a41.5,41.5,0,1,1-10.69,27.8"/><circle class="cls-5" cx="106.79" cy="97.63" r="3.5"/><circle class="cls-5" cx="119.59" cy="46.23" r="3.5"/><circle class="cls-5" cx="119.59" cy="29.23" r="3.5"/><circle class="cls-14" cx="86.59" cy="101.23" r="3.5"/><circle class="cls-5" cx="126.99" cy="94.03" r="3.5"/><circle class="cls-5" cx="147.19" cy="90.43" r="3.5"/><circle class="cls-5" cx="167.39" cy="86.83" r="3.5"/><circle class="cls-5" cx="187.59" cy="83.23" r="3.5"/><circle class="cls-5" cx="208.59" cy="86.23" r="3.5"/><circle class="cls-5" cx="215.59" cy="105.98" r="3.5"/><circle class="cls-5" cx="222.59" cy="125.73" r="3.5"/><circle class="cls-5" cx="229.59" cy="145.48" r="3.5"/><circle class="cls-5" cx="236.59" cy="165.23" r="3.5"/><line class="cls-5" x1="105.09" y1="73.73" x2="108.09" y2="19.73"/><polygon id="eyebrow" class="cls-12" points="54.91 146.58 170.26 134.32 180.79 138.74 187.28 199.89 71.93 212.15 61.05 204.42 54.91 146.58"/><line class="cls-4" x1="176.39" y1="192" x2="187.28" y2="199.89"/><polyline class="cls-4" points="61.13 204.39 176.45 191.84 170.17 134.19"/><path class="cls-5" d="M182.91,261.91c4.89,15.89,10.54,32,15.68,45.82"/><path class="cls-5" d="M179.43,250.14c.43,1.52.87,3.05,1.32,4.58"/><path class="cls-5" d="M170.59,208.23a196.47,196.47,0,0,0,4.89,27"/><path class="cls-5" d="M324.5,180.18a48.5,48.5,0,0,1-40.91,74.55"/><line class="cls-5" x1="237.7" y1="307.79" x2="227.09" y2="296.73"/><line class="cls-5" x1="275.09" y1="346.73" x2="246.28" y2="316.72"/><path class="cls-14" d="M165.41,122.75c.17-2.24.4-4.62.71-7.09-.43,3.44-.43-.38,1.8-10.76"/><line class="cls-5" x1="250.92" y1="45.23" x2="262.92" y2="47.9"/><line class="cls-5" x1="257.26" y1="54.57" x2="266.92" y2="58.23"/></g></g></svg>