<svg xmlns="http://www.w3.org/2000/svg" viewBox="0 0 239.3 280.79"><defs><style>.cls-1{fill:#e53345;}.cls-1,.cls-10,.cls-11,.cls-12,.cls-13,.cls-2,.cls-3,.cls-4,.cls-6,.cls-7,.cls-8,.cls-9{stroke:#333;stroke-miterlimit:10;}.cls-1,.cls-2,.cls-3,.cls-6{stroke-width:5px;}.cls-11,.cls-12,.cls-13,.cls-2{fill:#333;}.cls-3,.cls-4,.cls-5{fill:#fff;}.cls-11,.cls-4,.cls-7,.cls-8{stroke-width:3px;}.cls-10,.cls-6,.cls-7,.cls-8,.cls-9{fill:none;}.cls-8{stroke-linecap:round;}.cls-9{stroke-width:8px;}.cls-10,.cls-12{stroke-width:4px;}</style></defs><title>5Asset 4</title><g id="Layer_2" data-name="Layer 2"><g id="Layer_7_copy" data-name="Layer 7 copy"><path class="cls-1" d="M227.19,205.85c0,37.56-32.9,68-73.5,68s-73.5-30.44-73.5-68c0-6.6,1-16,2.92-19,10.08-11,55.08-12,69.08-12,12,0,63,1,71.49,10.17C226.19,186.85,227.19,198.58,227.19,205.85Z"/><path class="cls-2" d="M98.19,194.85s-10.58-34.39-9-46c.31-2.21,1-6,4-8,4.35-2.89,20-6,20-6l23,43L127,203.68l-16.34-2-12.5-6.83"/><path class="cls-1" d="M142.19,261.85c2,1,8,4,2,7-17,7-34.06,10.77-50,9-9-1-15-4-14-10,.88-5.24,10.93-13.4,16-15a19.9,19.9,0,0,1,7-1C113.23,252.56,133.19,257.35,142.19,261.85Z"/><path class="cls-1" d="M182.69,268.85s21.51,4.34,25.5,0c2.54-2.75-4.5-12.75-4.5-12.75"/><polygon class="cls-3" points="235.94 219.35 211.66 216.92 212.42 200.35 236.69 202.78 235.94 219.35"/><line class="cls-4" x1="218.74" y1="201.98" x2="217.78" y2="215.55"/><rect class="cls-3" x="164.19" y="209.85" width="37" height="17" transform="translate(-67.5 82.49) rotate(-21.58)"/><line class="cls-4" x1="169.19" y1="215.85" x2="174.19" y2="228.85"/><path class="cls-3" d="M71.34,215.82c.12-3.26-5.74-7.22-10.74-7.4-6-.22-12,4.73-16.21,5.42-5,.81-12.06,1.56-26.12,3,14.91,2.54,18.87,3.69,24.8,5.9,4.92,2.18,8.7,8.33,14.7,8.54S70.88,228.5,71,224.81"/><circle class="cls-1" cx="186.19" cy="242.85" r="8"/><path class="cls-5" d="M186.19,243.35c0,4.14.65,7.5-3.5,7.5s-6.5-3.36-6.5-7.5.36-7.5,4.5-7.5S186.19,239.21,186.19,243.35Z"/><circle class="cls-6" cx="186.19" cy="242.85" r="8"/><ellipse class="cls-1" cx="213.78" cy="237.14" rx="7.09" ry="4.48" transform="translate(-82.88 355.16) rotate(-69.66)"/><path class="cls-7" d="M182.69,250a8,8,0,0,0,0-14.38"/><path class="cls-7" d="M211.23,232.65a8.92,8.92,0,0,1-.25,6,10.35,10.35,0,0,1-1.65,2.93"/><line class="cls-8" x1="93.19" y1="215.85" x2="99.19" y2="218.85"/><line class="cls-8" x1="97.19" y1="224.85" x2="103.19" y2="226.85"/><line class="cls-8" x1="119.19" y1="261.85" x2="125.19" y2="265.85"/><path class="cls-9" d="M209.19,135.85c1.5,12.5,12,41-17.5,41-33.5,0-21.5-29.4-21.5-41"/><path class="cls-3" d="M108.19,179.85l-2-43c0-15.46,14.33-28,32-28s27,12.54,27,28v12"/><polyline class="cls-6" points="200.19 162.85 183.19 159.85 167.19 150.85"/><path class="cls-6" d="M116.19,129.85s-2,6,0,10c3.09,6.17,16,18,19,20s25,3,25,3"/><path class="cls-6" d="M133.19,132.85s7.41,10.64,11,13c4,2.6,18.5,4,18.5,4"/><path class="cls-6" d="M163.19,125.85c0,1,21,19,21,19l16.75,4.5"/><path class="cls-3" d="M183.5,185.84S144.16,168.68,130,167.9c-6.56-.36-22.13-1.14-24.69,4.92s3.3,16.79,16.72,21.78c16,5.94,61.44,3.28,61.44,3.28"/><path class="cls-3" d="M130.19,103.85l-2,10c2.34,3.26,12.73,4.31,16,2l1-7"/><circle class="cls-3" cx="210.19" cy="155.85" r="12"/><circle class="cls-3" cx="170.19" cy="157.85" r="12"/><path class="cls-6" d="M137.53,139.68c-6.34,1.17-11.34,7.36-11.34,11.17"/><line class="cls-9" x1="191.86" y1="201.68" x2="191.86" y2="176.85"/><path class="cls-6" d="M173.19,197.85c4,2,18.32,1.89,24,1,5.09-.8,15-8.95,14-14s-7.22-6.14-12-7c-5.07-.92-17,1-20,5"/><path class="cls-6" d="M184.19,182.85c-1,3-1,11,0,14"/><path class="cls-3" d="M163,205.48c-.63-1.23-.93-2.79-1.84-3.63-4.26-4-16.19-8-22-8-5,0-9.9,2.71-11,6a6.93,6.93,0,0,0,0,5"/><line class="cls-6" x1="156.19" y1="174.85" x2="165.03" y2="169.68"/><line class="cls-6" x1="174.19" y1="174.85" x2="168.19" y2="179.68"/><path class="cls-6" d="M212.19,186.85s-3,7-8,10c-11.18,6.71-37.34,8.77-50,9-12.34.23-37.65-1.14-49-6a22.5,22.5,0,0,1-10-8"/><g id="Smile"><circle class="cls-6" cx="152.1" cy="60.06" r="50"/><path id="ear" class="cls-3" d="M114.09,66.57s-6.26-5-10-6.51c-2-.82-4.85-1.63-7.83.5-3.5,2.5-4.84,9.34-3.67,14.34,1.52,6.53,7.33,10.66,13,11.41,4.07.54,9-1.75,9-1.75"/><path class="cls-6" d="M201.43,59.9s2.76-3.83,5.17-4,3.58,3.5,4,5.16c1.11,4.46,0,11.67-2.75,15.34-1,1.33-3.31,3.76-6,4a12,12,0,0,1-4.42-.84"/><path id="mouth" class="cls-10" d="M192.69,77.35a48.31,48.31,0,0,1-26,8,94.78,94.78,0,0,1-31-5s0,18,30,18c9,0,18-7,20-10"/><path id="nose" class="cls-10" d="M167.72,68.56s5.88-.25,6.63,2c.83,2.5-1.38,5.88-1.38,5.88"/><line class="cls-7" x1="152.93" y1="75.23" x2="148.1" y2="79.73"/><line class="cls-7" x1="162.6" y1="75.9" x2="159.27" y2="80.23"/><line class="cls-7" x1="177.77" y1="75.73" x2="181.1" y2="78.9"/><line class="cls-7" x1="185.43" y1="72.06" x2="189.1" y2="75.4"/><line class="cls-7" x1="168.1" y1="101.73" x2="166.93" y2="105.73"/><line class="cls-7" x1="157.77" y1="101.4" x2="155.27" y2="105.56"/><line class="cls-7" x1="178.6" y1="98.06" x2="176.77" y2="101.73"/><path class="cls-10" d="M99.77,73.06c0-1.43.16-5,1.66-5.5s3.88,1,4.92,2c2,1.92,3.42,7.34,3.42,7.34"/><path class="cls-11" d="M188.1,25.9c-1.17.5-19.68,3.72-23.17,4-4.16.33-43.5-1.17-43.5-1.17s2.67,24.5,2.17,25.17-9.5,8.33-9.5,8.33l2.17,8.83s-5.2-6.65-8-9-4.88-1.89-5.5-4c-1.72-5.8,4-18,7.16-23.16,3.93-6.29,13.74-16.71,20.67-19.34,8-3,25.09-5.33,33.5-3.83,5.23.93,19.17,9.17,19.17,9.17Z"/><path id="hawk" class="cls-12" d="M186,23.31c-3.5-4.16-17.37-16.25-23.87-21.08-11.33,3.83-31.5,10.83-37.5,16.67C114,29.23,187.31,25.15,186,23.31Z"/><g id="teeth"><line class="cls-7" x1="182.19" y1="83.85" x2="182.19" y2="91.85"/><line class="cls-7" x1="171.19" y1="86.35" x2="171.19" y2="96.35"/><line class="cls-7" x1="161.19" y1="86.35" x2="161.19" y2="96.35"/><line class="cls-7" x1="151.19" y1="85.35" x2="151.19" y2="95.35"/><line class="cls-7" x1="141.19" y1="82.35" x2="141.19" y2="90.35"/></g><circle class="cls-13" cx="148.1" cy="64.94" r="3.87"/><circle class="cls-13" cx="184.47" cy="63.69" r="3.87"/><path class="cls-13" d="M158.85,51.06a4.4,4.4,0,0,0,2.61-2.44c.78-1.78-.14-5.15-.37-6.38-.15-.82-.73-3.35-2-3.88s-4.73-.28-6.62.36c-5.44,1.84-15,8.76-19.15,12.7-.79.74-2.39,2.39-2.62,3.45-.13.58-.28,3,.92,2.49C138.64,54.59,153.78,52.16,158.85,51.06Z"/><path class="cls-13" d="M180.81,39.74c-.93-.64-3.33-.63-4.21.81a17.8,17.8,0,0,0-1.8,7.23,4.42,4.42,0,0,0,2.68,3.58c4.08,1.21,11.14,2.94,15.79,4,1.35.3,1.34-1.79,1-2.35C193.43,51.48,185.25,42.76,180.81,39.74Z"/></g></g></g></svg>