<svg xmlns="http://www.w3.org/2000/svg" viewBox="0 0 240 290"><defs><style>.cls-1,.cls-2,.cls-5{fill:#fff;}.cls-10,.cls-11,.cls-12,.cls-2,.cls-3,.cls-4,.cls-5,.cls-6,.cls-7,.cls-8,.cls-9{stroke:#444;stroke-miterlimit:10;}.cls-2,.cls-3,.cls-4{stroke-width:5px;}.cls-10,.cls-11,.cls-12,.cls-3{fill:#444;}.cls-4,.cls-6,.cls-7,.cls-8,.cls-9{fill:none;}.cls-10,.cls-5,.cls-6,.cls-7{stroke-width:3px;}.cls-7{stroke-linecap:round;}.cls-8{stroke-width:8px;}.cls-11,.cls-9{stroke-width:4px;}</style></defs><title>5Asset 11</title><g id="Layer_2" data-name="Layer 2"><g id="_444" data-name="444"><rect id="bg" class="cls-1" width="240" height="290"/><path class="cls-2" d="M227.5,206.5c0,37.56-32.91,68-73.5,68s-73.5-30.44-73.5-68c0-6.6,1-16,2.92-19,10.08-11,55.08-12,69.08-12,12,0,63,1,71.49,10.17C226.5,187.5,227.5,199.23,227.5,206.5Z"/><path class="cls-3" d="M98.5,195.5s-10.58-34.39-9-46c.3-2.22,1-6,4-8,4.34-2.9,20-6,20-6l23,43-9.17,25.83-16.33-2L98.5,195.5"/><path class="cls-2" d="M142.5,262.5c2,1,8,4,2,7-17,7-34.07,10.77-50,9-9-1-15-4-14-10,.87-5.24,10.93-13.4,16-15a19.87,19.87,0,0,1,7-1C113.54,253.21,133.5,258,142.5,262.5Z"/><path class="cls-4" d="M183,269.5s21.51,4.34,25.5,0c2.53-2.75-4.5-12.75-4.5-12.75"/><g id="eyebrows-smile"><polygon class="cls-2" points="236.25 220 211.97 217.57 212.72 201 237 203.43 236.25 220"/><line class="cls-5" x1="219.04" y1="202.63" x2="218.09" y2="216.2"/><rect class="cls-4" x="164.5" y="210.5" width="37" height="17" transform="translate(-67.72 82.65) rotate(-21.58)"/><line class="cls-6" x1="169.5" y1="216.5" x2="174.5" y2="229.5"/></g><path class="cls-2" d="M71.65,216.47c.11-3.26-5.74-7.22-10.74-7.4-6-.22-12,4.73-16.21,5.42-5,.81-12.06,1.56-26.13,3,14.92,2.54,18.88,3.69,24.8,5.9,4.93,2.18,8.71,8.33,14.7,8.54s13.11-2.83,13.25-6.52"/><circle class="cls-2" cx="186.5" cy="243.5" r="8"/><ellipse class="cls-4" cx="214.09" cy="237.79" rx="7.09" ry="4.48" transform="translate(-83.29 355.87) rotate(-69.66)"/><path class="cls-6" d="M183,250.69a8,8,0,0,0,0-14.38"/><path class="cls-6" d="M211.54,233.3a8.92,8.92,0,0,1-.25,6,10.35,10.35,0,0,1-1.65,2.93"/><line class="cls-7" x1="93.5" y1="216.5" x2="99.5" y2="219.5"/><line class="cls-7" x1="97.5" y1="225.5" x2="103.5" y2="227.5"/><line class="cls-7" x1="119.5" y1="262.5" x2="125.5" y2="266.5"/><path class="cls-8" d="M209.5,136.5c1.5,12.5,12,41-17.5,41-33.5,0-21.5-29.4-21.5-41"/><path class="cls-4" d="M163.5,126.5c0,1,21,19,21,19l16.75,4.5"/><path class="cls-2" d="M108.5,180.5l-2-43c0-15.46,14.33-28,32-28s27,12.54,27,28v12"/><polyline class="cls-4" points="200.5 163.5 183.5 160.5 167.5 151.5"/><path class="cls-4" d="M116.5,130.5s-2,6,0,10c3.08,6.17,16,18,19,20s25,3,25,3"/><path class="cls-4" d="M133.5,133.5s7.41,10.64,11,13c3.95,2.6,18.5,4,18.5,4"/><path class="cls-2" d="M183.81,186.49s-39.35-17.16-53.54-17.94c-6.57-.36-22.13-1.14-24.69,4.92s3.3,16.79,16.72,21.78c16,5.94,61.43,3.28,61.43,3.28"/><path class="cls-2" d="M130.5,104.5l-2,10c2.33,3.26,12.73,4.31,16,2l1-7"/><circle class="cls-2" cx="210.5" cy="156.5" r="12"/><circle class="cls-2" cx="170.5" cy="158.5" r="12"/><path class="cls-4" d="M137.83,140.33c-6.33,1.17-11.33,7.36-11.33,11.17"/><line class="cls-8" x1="192.17" y1="202.33" x2="192.17" y2="177.5"/><path class="cls-4" d="M173.5,198.5c4,2,18.31,1.89,24,1,5.09-.8,15-8.95,14-14s-7.22-6.14-12-7c-5.07-.92-17,1-20,5"/><path class="cls-4" d="M184.5,183.5c-1,3-1,11,0,14"/><path class="cls-2" d="M163.34,206.13c-.63-1.23-.93-2.79-1.84-3.63-4.26-4-16.19-8-22-8-5,0-9.9,2.71-11,6a6.93,6.93,0,0,0,0,5"/><line class="cls-4" x1="156.5" y1="175.5" x2="165.33" y2="170.33"/><line class="cls-4" x1="174.5" y1="175.5" x2="168.5" y2="180.33"/><path class="cls-4" d="M212.5,187.5s-3,7-8,10c-11.18,6.71-37.34,8.77-50,9-12.34.23-37.66-1.14-49-6a22.5,22.5,0,0,1-10-8"/><g id="Smile"><circle class="cls-4" cx="152.4" cy="60.71" r="50"/><path id="ear" class="cls-2" d="M114.4,67.21s-6.26-5-10-6.5c-2.05-.82-4.84-1.63-7.83.5-3.5,2.5-4.83,9.34-3.67,14.34,1.53,6.53,7.34,10.66,13,11.41,4.07.54,9-1.75,9-1.75"/><path class="cls-4" d="M201.74,60.55s2.75-3.83,5.16-4,3.59,3.5,4,5.16c1.12,4.46,0,11.67-2.75,15.34-1,1.33-3.31,3.76-6,4a11.93,11.93,0,0,1-4.41-.84"/><path id="mouth" class="cls-9" d="M193,78a48.31,48.31,0,0,1-26,8,94.78,94.78,0,0,1-31-5s0,18,30,18c9,0,18-7,20-10"/><path id="nose" class="cls-9" d="M168,69.21s5.87-.25,6.62,2c.84,2.5-1.37,5.88-1.37,5.88"/><line class="cls-6" x1="153.24" y1="75.88" x2="148.4" y2="80.38"/><line class="cls-6" x1="162.9" y1="76.55" x2="159.57" y2="80.88"/><line class="cls-6" x1="178.07" y1="76.38" x2="181.4" y2="79.55"/><line class="cls-6" x1="185.74" y1="72.71" x2="189.4" y2="76.05"/><line class="cls-6" x1="168.4" y1="102.38" x2="167.24" y2="106.38"/><line class="cls-6" x1="158.07" y1="102.05" x2="155.57" y2="106.21"/><line class="cls-6" x1="178.9" y1="98.71" x2="177.07" y2="102.38"/><path class="cls-9" d="M100.07,73.71c0-1.43.17-5,1.67-5.5s3.88,1,4.91,2c2,1.92,3.42,7.34,3.42,7.34"/><path class="cls-10" d="M188.4,26.55c-1.16.5-19.67,3.72-23.16,4-4.17.33-43.5-1.17-43.5-1.17s2.66,24.5,2.16,25.17-9.5,8.33-9.5,8.33l2.17,8.83s-5.2-6.65-8-9-4.88-1.89-5.5-4c-1.71-5.8,4-18,7.17-23.16,3.92-6.29,13.74-16.71,20.66-19.34,8-3,25.1-5.33,33.5-3.83,5.23.93,19.17,9.17,19.17,9.17Z"/><path id="hawk" class="cls-11" d="M186.28,24C182.78,19.8,168.9,7.71,162.4,2.88c-11.33,3.83-31.5,10.83-37.5,16.67C114.28,29.88,187.61,25.8,186.28,24Z"/><g id="teeth"><line class="cls-6" x1="182.5" y1="84.5" x2="182.5" y2="92.5"/><line class="cls-6" x1="171.5" y1="87" x2="171.5" y2="97"/><line class="cls-6" x1="161.5" y1="87" x2="161.5" y2="97"/><line class="cls-6" x1="151.5" y1="86" x2="151.5" y2="96"/><line class="cls-6" x1="141.5" y1="83" x2="141.5" y2="91"/></g><circle class="cls-12" cx="148.4" cy="65.59" r="3.87"/><circle class="cls-12" cx="184.78" cy="64.34" r="3.87"/><path class="cls-12" d="M159.16,51.71a4.43,4.43,0,0,0,2.61-2.44c.78-1.78-.15-5.15-.37-6.38-.16-.82-.73-3.35-2-3.88s-4.73-.28-6.63.36c-5.44,1.84-15,8.76-19.15,12.69-.79.75-2.38,2.4-2.61,3.46-.13.58-.28,3,.92,2.49C139,55.24,154.09,52.81,159.16,51.71Z"/><path class="cls-12" d="M181.12,40.38c-.93-.63-3.33-.62-4.21.82a17.48,17.48,0,0,0-1.8,7.23A4.42,4.42,0,0,0,177.79,52c4.08,1.21,11.14,2.93,15.79,4,1.34.31,1.34-1.78,1-2.34C193.73,52.13,185.56,43.41,181.12,40.38Z"/></g></g></g></svg>